<svg width="213" height="51" viewBox="0 0 213 51" fill="none" xmlns="http://www.w3.org/2000/svg">
<path d="M21.112 40L19.624 33.184H10.792L9.304 40H0.0879974L9.976 6.64001H20.632L30.52 40H21.112ZM12.184 26.848H18.232L15.208 12.976L12.184 26.848Z" fill="#050810"/>
<path d="M47.3057 13.552C50.5057 13.552 52.9057 14.752 54.5057 17.152C56.1057 19.52 56.9057 22.848 56.9057 27.136C56.9057 29.76 56.4897 32.112 55.6577 34.192C54.8257 36.272 53.6257 37.904 52.0577 39.088C50.5217 40.272 48.7457 40.864 46.7297 40.864C44.2017 40.864 42.1697 40 40.6337 38.272V49.888L32.0897 50.752V14.416H39.6737L40.0577 17.104C41.0497 15.856 42.1697 14.96 43.4177 14.416C44.6977 13.84 45.9937 13.552 47.3057 13.552ZM43.9937 34.72C46.7137 34.72 48.0737 32.224 48.0737 27.232C48.0737 24.32 47.7697 22.352 47.1617 21.328C46.5857 20.272 45.7057 19.744 44.5217 19.744C42.9857 19.744 41.6897 20.64 40.6337 22.432V32.704C41.1137 33.408 41.6097 33.92 42.1217 34.24C42.6657 34.56 43.2897 34.72 43.9937 34.72Z" fill="#050810"/>
<path d="M60.8732 40V6.64001H81.3692L80.4572 12.928H69.7533V20.944H79.1612V27.232H69.7533V40H60.8732Z" fill="#050810"/>
<path d="M105.618 26.8C105.618 26.992 105.569 27.952 105.473 29.68H89.8255C90.0495 31.632 90.5935 32.976 91.4575 33.712C92.3535 34.416 93.6175 34.768 95.2495 34.768C96.2095 34.768 97.1535 34.592 98.0815 34.24C99.0415 33.856 100.082 33.28 101.201 32.512L104.658 37.216C103.314 38.336 101.777 39.232 100.049 39.904C98.3215 40.544 96.4495 40.864 94.4335 40.864C90.0815 40.864 86.7695 39.648 84.4975 37.216C82.2575 34.752 81.1375 31.456 81.1375 27.328C81.1375 24.736 81.6015 22.4 82.5295 20.32C83.4895 18.24 84.8975 16.592 86.7535 15.376C88.6095 14.16 90.8495 13.552 93.4735 13.552C97.2175 13.552 100.178 14.72 102.354 17.056C104.53 19.36 105.618 22.608 105.618 26.8ZM97.2175 24.4C97.1855 22.704 96.8975 21.392 96.3535 20.464C95.8095 19.536 94.8975 19.072 93.6175 19.072C92.4335 19.072 91.5375 19.488 90.9295 20.32C90.3215 21.152 89.9375 22.608 89.7775 24.688H97.2175V24.4Z" fill="#050810"/>
<path d="M117.603 14.416V40H109.058V14.416H117.603ZM113.33 0.640015C114.77 0.640015 115.938 1.08801 116.834 1.98401C117.762 2.88001 118.227 4.00001 118.227 5.34401C118.227 6.68802 117.762 7.80802 116.834 8.70402C115.938 9.60002 114.77 10.048 113.33 10.048C111.89 10.048 110.706 9.60002 109.778 8.70402C108.882 7.80802 108.434 6.68802 108.434 5.34401C108.434 4.00001 108.882 2.88001 109.778 1.98401C110.706 1.08801 111.89 0.640015 113.33 0.640015Z" fill="#050810"/>
<path d="M139.597 38.752C138.605 39.456 137.453 39.984 136.141 40.336C134.829 40.688 133.549 40.864 132.301 40.864C126.381 40.864 123.421 37.6 123.421 31.072V20.272H120.109V14.416H123.421V8.99202L131.965 7.98401V14.416H137.773L136.909 20.272H131.965V30.976C131.965 32.128 132.141 32.944 132.493 33.424C132.877 33.904 133.437 34.144 134.173 34.144C135.069 34.144 135.933 33.904 136.765 33.424L139.597 38.752Z" fill="#050810"/>
<path d="M152.078 13.552C156.078 13.552 159.214 14.752 161.486 17.152C163.758 19.552 164.895 22.912 164.895 27.232C164.895 29.984 164.383 32.384 163.359 34.432C162.335 36.48 160.847 38.064 158.895 39.184C156.975 40.304 154.702 40.864 152.078 40.864C148.078 40.864 144.943 39.664 142.671 37.264C140.399 34.864 139.262 31.504 139.262 27.184C139.262 24.432 139.774 22.032 140.798 19.984C141.822 17.936 143.294 16.352 145.214 15.232C147.166 14.112 149.454 13.552 152.078 13.552ZM152.078 19.744C150.702 19.744 149.679 20.352 149.007 21.568C148.366 22.752 148.046 24.624 148.046 27.184C148.046 29.84 148.366 31.76 149.007 32.944C149.679 34.096 150.702 34.672 152.078 34.672C153.454 34.672 154.462 34.08 155.102 32.896C155.774 31.68 156.111 29.792 156.111 27.232C156.111 24.608 155.774 22.704 155.102 21.52C154.462 20.336 153.454 19.744 152.078 19.744Z" fill="#050810"/>
<path d="M187.032 14.416V20.416L176.04 33.616H187.368L186.6 40H166.104V34L177.24 20.752H167.064V14.416H187.032Z" fill="#050810"/>
<path d="M210.993 32.128C210.993 33.056 211.105 33.744 211.329 34.192C211.585 34.64 212.017 34.976 212.625 35.2L210.897 40.72C209.265 40.592 207.921 40.256 206.865 39.712C205.841 39.168 205.009 38.304 204.369 37.12C202.737 39.616 200.161 40.864 196.641 40.864C194.113 40.864 192.081 40.128 190.545 38.656C189.041 37.152 188.289 35.216 188.289 32.848C188.289 30.032 189.329 27.872 191.409 26.368C193.489 24.864 196.497 24.112 200.433 24.112H202.641V23.248C202.641 21.872 202.353 20.944 201.777 20.464C201.201 19.952 200.161 19.696 198.657 19.696C197.857 19.696 196.849 19.824 195.633 20.08C194.449 20.304 193.233 20.624 191.985 21.04L190.113 15.52C191.649 14.88 193.297 14.4 195.057 14.08C196.817 13.728 198.449 13.552 199.953 13.552C203.793 13.552 206.593 14.32 208.353 15.856C210.113 17.36 210.993 19.68 210.993 22.816V32.128ZM199.233 34.864C199.937 34.864 200.577 34.688 201.153 34.336C201.761 33.952 202.257 33.44 202.641 32.8V28.672H201.201C199.665 28.672 198.529 28.96 197.793 29.536C197.057 30.08 196.689 30.912 196.689 32.032C196.689 32.896 196.913 33.584 197.361 34.096C197.809 34.608 198.433 34.864 199.233 34.864Z" fill="#050810"/>
</svg>
