<svg width="24" height="24" viewBox="0 0 24 24" fill="none" xmlns="http://www.w3.org/2000/svg">
<rect width="24" height="24" rx="5" fill="#172038"/>
<g opacity="0.8">
<path fill-rule="evenodd" clip-rule="evenodd" d="M8.00025 11.7039L8.12461 19.2405C8.1755 20.2947 9.71928 20.2108 9.71928 19.2405L9.68543 14.1427C10.5223 14.772 12.4224 15.2074 14.2432 14.1427C14.2432 14.6776 14.492 15.0762 15.0349 15.0762C15.2045 15.0762 15.8604 15.0762 15.9339 14.1427C16.0075 12.8053 16.1297 9.87351 15.589 8.20046C14.9839 6.32811 13.1009 3.55367 9.56099 5.89805C8.79759 6.45399 9.60057 7.62809 10.7542 6.90503C11.5926 6.37954 13.0783 5.77218 14.017 8.43647C12.3828 7.83333 9.32126 8.35466 8.40743 10.8805C8.16419 11.0693 7.99248 11.2717 8.00025 11.7039ZM14.4638 11.8979C14.4457 11.5917 14.4638 10.9329 14.362 10.5553C13.3667 8.92947 9.63451 9.93121 9.92856 12.0396C10.1887 13.4871 13.0387 13.8857 14.4638 11.8979Z" fill="url(#paint0_linear_24_16)"/>
<path d="M6.26384 14.555C7.43954 14.8196 7.21284 16.3562 5.54156 15.9237C4.81927 15.7558 4.09698 15.5744 2.62076 14.7433C1.35544 14.031 0.899771 13.2321 1.01802 12.1941C1.19517 10.6392 4.15497 9.36002 5.58374 9.03947C6.8596 8.75323 7.20757 10.1079 6.2164 10.398C5.57319 10.5863 4.70855 10.8559 3.7332 11.4258C2.48474 12.0567 2.53328 12.4892 2.62076 12.7487C2.83692 13.3898 4.76608 14.2179 6.26384 14.555Z" fill="url(#paint1_linear_24_16)"/>
<path d="M17.7362 14.555C16.5605 14.8196 16.7872 16.3562 18.4584 15.9237C19.1807 15.7558 19.903 15.5744 21.3792 14.7433C22.6446 14.031 23.1002 13.2321 22.982 12.1941C22.8048 10.6392 19.845 9.36002 18.4163 9.03947C17.1404 8.75323 16.7924 10.1079 17.7836 10.398C18.4268 10.5863 19.2914 10.8559 20.2668 11.4258C21.5153 12.0567 21.4667 12.4892 21.3792 12.7487C21.1631 13.3898 19.2339 14.2179 17.7362 14.555Z" fill="url(#paint2_linear_24_16)"/>
</g>
<defs>
<linearGradient id="paint0_linear_24_16" x1="12" y1="5" x2="12" y2="20" gradientUnits="userSpaceOnUse">
<stop stop-color="#42E3FF"/>
<stop offset="1" stop-color="#0AC3F8"/>
</linearGradient>
<linearGradient id="paint1_linear_24_16" x1="12" y1="5" x2="12" y2="20" gradientUnits="userSpaceOnUse">
<stop stop-color="#42E3FF"/>
<stop offset="1" stop-color="#0AC3F8"/>
</linearGradient>
<linearGradient id="paint2_linear_24_16" x1="12" y1="5" x2="12" y2="20" gradientUnits="userSpaceOnUse">
<stop stop-color="#42E3FF"/>
<stop offset="1" stop-color="#0AC3F8"/>
</linearGradient>
</defs>
</svg>
