<svg width="24" height="24" viewBox="0 0 24 24" fill="none" xmlns="http://www.w3.org/2000/svg">
<path d="M15.4447 5.43905C16.3567 7.4498 17.4765 9.91805 18.3165 10.899C18.4807 10.5173 18.4627 9.87905 18.6502 8.32055C18.8197 6.9128 19.9807 6.7793 20.4787 6.87905C21.5797 7.10855 21.9157 8.2253 21.879 8.63705C21.8205 9.2933 21.8175 9.2708 21.6975 10.857C21.5212 13.1775 22.4175 14.9295 22.5 16.9163C22.5 20.6603 19.2187 22.5 16.9222 22.5C15.0847 22.5 13.2465 21.324 12.5572 20.736L9.11097 17.5898C8.68947 17.262 7.64697 16.1798 7.18947 15.5573C5.94222 13.86 7.74597 12.6915 8.75997 12.9848C8.67972 12.9233 8.19897 12.1425 7.96872 11.76C7.34997 10.5173 7.96872 9.69005 8.42622 9.4628C9.46272 8.94755 10.2247 9.5273 10.4647 9.8438C10.3732 9.6878 10.0852 9.0563 9.62097 7.8983C9.15672 6.7403 9.90447 6.02555 10.3357 5.81255C11.2732 5.37905 12.1642 5.92955 12.387 6.4223C12.4957 6.6623 13.0845 7.9508 13.3395 8.5193C13.1467 8.0483 12.7972 7.1123 12.6735 6.67955C12.4275 5.65955 13.0192 4.9613 13.3942 4.7813C13.9162 4.53155 15.0037 4.4663 15.4342 5.4143L15.4447 5.43905Z" fill="#EEBFAA"/>
<path d="M13.3365 5.18632C13.416 4.93132 13.5247 4.77682 13.6072 4.70032C13.5287 4.72332 13.4577 4.75032 13.3942 4.78132C13.0192 4.96132 12.4275 5.66032 12.6742 6.67957C12.7972 7.11232 13.1467 8.04832 13.3402 8.51932L13.2472 8.31382C13.6702 9.28507 14.1975 10.3313 14.595 11.0063C14.6454 11.092 14.7278 11.1542 14.8241 11.1792C14.9204 11.2042 15.0226 11.1899 15.1084 11.1394C15.1941 11.089 15.2563 11.0066 15.2812 10.9103C15.3062 10.814 15.2919 10.7118 15.2415 10.6261C14.5965 9.53032 13.6155 7.44982 13.3342 6.41707C13.2207 6.01482 13.2215 5.58815 13.3365 5.18632ZM7.96873 11.7601C8.14273 12.0496 8.45998 12.5663 8.63923 12.8273C8.87623 13.1123 9.13573 13.3861 9.39823 13.6463C9.69823 13.9426 10.0095 14.2291 10.3042 14.5006L10.329 14.5231C10.6335 14.8036 10.9177 15.0668 11.1645 15.3166C11.1991 15.3516 11.2403 15.3795 11.2857 15.3987C11.3311 15.4178 11.3798 15.4278 11.4291 15.4282C11.4784 15.4285 11.5272 15.4191 11.5729 15.4005C11.6185 15.3819 11.66 15.3546 11.6951 15.3199C11.7302 15.2853 11.7581 15.2441 11.7772 15.1987C11.7964 15.1533 11.8064 15.1046 11.8067 15.0553C11.807 15.0061 11.7976 14.9572 11.779 14.9116C11.7605 14.8659 11.7331 14.8244 11.6985 14.7893C11.4367 14.5246 11.139 14.2493 10.8367 13.9718L10.8157 13.9523C10.5187 13.6786 10.2157 13.3996 9.92623 13.1123C9.32773 12.5198 8.81623 11.9243 8.54473 11.3236C8.35198 10.8991 8.30473 10.4018 8.35723 9.99082C8.37565 9.82148 8.42018 9.65602 8.48923 9.50032C8.50414 9.46918 8.52118 9.43911 8.54023 9.41032C8.50273 9.42632 8.46448 9.44382 8.42548 9.46282C7.96873 9.69007 7.34998 10.5173 7.96873 11.7601ZM10.4122 5.77957C10.332 5.83357 10.2225 5.96407 10.1527 6.21757C10.074 6.50332 10.0627 6.90532 10.194 7.38982C10.3845 8.09182 10.863 9.03382 11.4097 9.95632C11.8832 10.7504 12.3922 11.5226 12.9352 12.2708C12.9658 12.3105 12.9881 12.3558 13.0009 12.4042C13.0136 12.4526 13.0166 12.5031 13.0095 12.5526C13.0025 12.6022 12.9856 12.6498 12.9598 12.6927C12.9341 12.7356 12.9 12.773 12.8596 12.8025C12.8192 12.8321 12.7733 12.8532 12.7246 12.8647C12.6758 12.8762 12.6253 12.8779 12.576 12.8696C12.5266 12.8613 12.4794 12.8432 12.4372 12.8163C12.3949 12.7895 12.3585 12.7545 12.33 12.7133C11.7727 11.9458 11.2505 11.1535 10.7647 10.3388C10.6137 10.0858 10.4682 9.82982 10.3282 9.57082C10.0787 9.01923 9.84292 8.46156 9.62098 7.89832C9.15673 6.74107 9.90448 6.02557 10.3357 5.81332C10.3612 5.80082 10.3867 5.78957 10.4122 5.77957ZM18.507 9.70807C18.4522 10.3036 18.4207 10.6441 18.3232 10.8826L18.306 11.0873C18.297 11.1864 18.3278 11.2849 18.3915 11.3613C18.4552 11.4377 18.5467 11.4856 18.6457 11.4946C18.7448 11.5035 18.8433 11.4728 18.9197 11.409C18.9961 11.3453 19.044 11.2539 19.053 11.1548C19.064 11.0323 19.0752 10.8906 19.0867 10.7296C19.131 10.1348 19.1932 9.28657 19.377 8.22007C19.4535 7.77757 19.6522 7.39357 19.8795 7.14307C20.0557 6.95032 20.2072 6.87607 20.3115 6.85732C19.7587 6.81832 18.8025 7.05307 18.6502 8.31982C18.5954 8.78156 18.5477 9.24412 18.507 9.70732" fill="#D6A089"/>
<path d="M18.0285 5.6678C18.0288 5.71705 18.0389 5.76575 18.0581 5.81111C18.0772 5.85648 18.1051 5.89762 18.1402 5.9322C18.1753 5.96678 18.2168 5.99411 18.2624 6.01264C18.3081 6.03117 18.3569 6.04052 18.4061 6.04018C18.4554 6.03983 18.5041 6.02979 18.5494 6.01063C18.5948 5.99147 18.6359 5.96355 18.6705 5.92849C18.7051 5.89342 18.7324 5.85189 18.751 5.80626C18.7695 5.76063 18.7788 5.7118 18.7785 5.66255C18.7673 3.9413 17.4585 1.54655 14.646 1.56455C14.5465 1.56525 14.4514 1.60543 14.3816 1.67625C14.3118 1.74706 14.2729 1.84272 14.2736 1.94218C14.2743 2.04164 14.3145 2.13674 14.3853 2.20658C14.4561 2.27641 14.5518 2.31525 14.6513 2.31455C16.9253 2.29955 18.0188 4.22555 18.0285 5.6678Z" fill="#5092FF"/>
<path d="M17.1578 7.48957C17.0584 7.49017 16.9629 7.45134 16.8922 7.3816C16.8215 7.31186 16.7813 7.2169 16.7805 7.11757C16.776 6.43507 16.4948 5.52757 15.8978 4.79632C15.3098 4.07632 14.4225 3.53482 13.1827 3.54307C13.0833 3.54377 12.9876 3.50493 12.9168 3.4351C12.846 3.36526 12.8058 3.27016 12.8051 3.1707C12.8044 3.07124 12.8433 2.97558 12.9131 2.90477C12.9829 2.83395 13.078 2.79377 13.1775 2.79307C14.6685 2.78332 15.7635 3.44707 16.4783 4.32157C17.1833 5.18482 17.5245 6.25882 17.5305 7.11232C17.5308 7.16157 17.5214 7.21039 17.5028 7.256C17.4842 7.30161 17.4569 7.34312 17.4223 7.37815C17.3876 7.41318 17.3465 7.44105 17.3011 7.46017C17.2557 7.47929 17.207 7.48928 17.1578 7.48957ZM3.65625 13.2076C3.65625 13.1081 3.61674 13.0127 3.54641 12.9424C3.47609 12.8721 3.38071 12.8326 3.28125 12.8326C3.18179 12.8326 3.08641 12.8721 3.01609 12.9424C2.94576 13.0127 2.90625 13.1081 2.90625 13.2076C2.90625 14.0603 3.24 15.1366 3.93975 16.0051C4.64925 16.8841 5.73975 17.5546 7.23075 17.5546C7.33021 17.5546 7.42559 17.5151 7.49592 17.4447C7.56624 17.3744 7.60575 17.279 7.60575 17.1796C7.60575 17.0801 7.56624 16.9847 7.49592 16.9144C7.42559 16.8441 7.33021 16.8046 7.23075 16.8046C5.991 16.8046 5.10675 16.2571 4.52325 15.5341C3.9315 14.7991 3.65625 13.8886 3.65625 13.2068" fill="#5092FF"/>
<path d="M2.39923 14.6483C2.39923 14.5489 2.35972 14.4535 2.2894 14.3832C2.21907 14.3128 2.12369 14.2733 2.02423 14.2733C1.92477 14.2733 1.82939 14.3128 1.75907 14.3832C1.68874 14.4535 1.64923 14.5489 1.64923 14.6483C1.64923 16.3696 2.94148 18.7733 5.75398 18.7733C5.85344 18.7733 5.94882 18.7338 6.01915 18.6635C6.08947 18.5932 6.12898 18.4978 6.12898 18.3983C6.12898 18.2989 6.08947 18.2035 6.01915 18.1332C5.94882 18.0628 5.85344 18.0233 5.75398 18.0233C3.47998 18.0233 2.39923 16.0913 2.39923 14.6483Z" fill="#5092FF"/>
</svg>
